<svg width="24" height="24" viewBox="0 0 24 24" xmlns="http://www.w3.org/2000/svg" focusable="false"><path fill-rule="evenodd" clip-rule="evenodd" d="M19.807 2.07a.75.75 0 0 1 1.133.976l-.072.084-3.02 3.02.002.002-2.362 2.362-.002-.002-3.443 3.443.003.001-2.193 2.193-.002-.002-1.415 1.415.002.002-2.301 2.3h-.002L2.97 21.026a.75.75 0 0 1-1.134-.976l.073-.084 2.99-2.99c-1.436-1.158-2.712-2.67-3.763-4.474a1 1 0 0 1 0-1.007C3.72 7.063 7.665 4.394 11.98 4.394c1.562 0 3.077.35 4.495 1.007l3.331-3.331Zm-7.906 4.936a5 5 0 0 1 2.374.596l-3.252 3.252a2.313 2.313 0 0 1-.08-1.693 2.977 2.977 0 0 0-2.042 2.817c0 .302.045.593.13.868l-1.518 1.518a4.926 4.926 0 0 1-.612-2.386c0-2.747 2.24-4.972 5-4.972Z"></path><path d="M7.512 18.612c1.41.649 2.915.995 4.468.995 4.317 0 8.262-2.67 10.846-7.104a1 1 0 0 0 0-1.007c-1.047-1.795-2.316-3.3-3.742-4.457l-2.712 2.712a4.93 4.93 0 0 1 .529 2.227c0 2.747-2.24 4.971-5 4.971a5.003 5.003 0 0 1-2.214-.513l-2.175 2.176Z"></path><path d="M11.245 14.878c.211.046.43.071.656.071 1.658 0 3-1.332 3-2.971 0-.154-.012-.305-.035-.452a2.356 2.356 0 0 1-.816.547l-2.805 2.805Z"></path></svg>