<svg width="36" height="36" viewBox="0 0 36 36" fill="none" xmlns="http://www.w3.org/2000/svg" focusable="false"><defs><clipPath id="clip93_526"><path id="36 Multicolor / Product / ds_mc_36_spasibo_alt2" fill="#fff" d="M0 0h36v36H0z"></path></clipPath></defs><g clip-path="url(#clip93_526)"><path id="Path" d="M18.5 5.875C11.625 5.875 6 11.5 6 18.375v12.5h12.5c6.875 0 12.5-5.625 12.5-12.5s-5.625-12.5-12.5-12.5Z" fill-rule="evenodd" fill="#B2B2B2"></path><path id="Path" d="M18.604 24.666c-3.646 0-6.667-3.02-6.667-6.666 0-3.646 3.021-6.666 6.667-6.666a6.62 6.62 0 0 1 5.208 2.5l-2.708 2.186c-.625-.728-1.458-1.145-2.5-1.145-1.77 0-3.125 1.459-3.125 3.125 0 1.771 1.458 3.125 3.125 3.125.938 0 1.875-.416 2.5-1.25l2.812 2.188c-1.25 1.666-3.229 2.604-5.312 2.604Z" fill-rule="nonzero" fill="#FFF"></path></g></svg>