<svg width="36" height="36" viewBox="0 0 36 36" xmlns="http://www.w3.org/2000/svg" focusable="false"><path fill-rule="evenodd" clip-rule="evenodd" d="M6 23a1 1 0 0 1 .993.883L7 24v5h5a1 1 0 0 1 .117 1.993L12 31H7a2 2 0 0 1-1.995-1.85L5 29v-5a1 1 0 0 1 1-1Zm24 0a1 1 0 0 1 .993.883L31 24v5a2 2 0 0 1-1.85 1.994L29 31h-5a1 1 0 0 1-.117-1.993L24 29h5v-5a1 1 0 0 1 1-1Zm-5-2v4h-4v-4h4Zm-10 0v4h-4v-4h4Zm4 2v2h-2v-2h2Zm2-8v6h-6v-2h4v-2h-4v2h-2v-2h2v-2h6Zm4 2v2h-2v-2h2Zm-10-6v4h-4v-4h4Zm10 0v4h-4v-4h4Zm-6 0v2h-2v-2h2Zm5-6h5a2 2 0 0 1 1.994 1.85L31 7v5a1 1 0 0 1-1.993.117L29 12V7h-5a1 1 0 0 1-.117-1.993L24 5h5-5ZM7 5h5a1 1 0 0 1 .117 1.993L12 7H7v5a1 1 0 0 1-1.993.117L5 12V7a2 2 0 0 1 1.85-1.995L7 5h5-5Z"></path></svg>