<svg width="37" height="37" viewBox="0 0 37 37" fill="none" xmlns="http://www.w3.org/2000/svg"><mask id="mask0_548_19819" style="mask-type:alpha" maskUnits="userSpaceOnUse" x="4" y="8" width="29" height="21"><rect x="4.25" y="8.6084" width="28" height="20" rx="4" fill="#21A038"></rect></mask><g mask="url(#mask0_548_19819)"><rect x="4.25" y="8.6084" width="28" height="20" fill="url(#paint0_radial_548_19819)"></rect><path d="M6.25 4.6084H32.75C34.1308 4.6084 35.1719 5.73248 34.7908 7.05957C33.8008 10.5067 30.986 16.1084 24.25 16.1084C16.178 16.1084 13.7368 19.7283 13.3193 26.6073C13.2356 27.9855 12.1307 29.1084 10.75 29.1084H6.25C4.86929 29.1084 3.75 27.9891 3.75 26.6084V7.1084C3.75 5.72769 4.86929 4.6084 6.25 4.6084Z" fill="url(#paint1_linear_548_19819)"></path><circle opacity="0.8" cx="9.75" cy="14.1084" r="2.5" fill="#727B82"></circle><rect x="19.25" y="20.6084" width="10" height="5" rx="2.5" fill="#08A652"></rect></g><defs><radialGradient id="paint0_radial_548_19819" cx="0" cy="0" r="1" gradientUnits="userSpaceOnUse" gradientTransform="translate(-2.25 4.1084) rotate(35.3803) scale(42.3143 40.027)"><stop offset="0.11118" stop-color="#121212"></stop><stop offset="0.570891" stop-color="#0E0E0E"></stop><stop offset="0.95601" stop-color="#4D555B"></stop></radialGradient><linearGradient id="paint1_linear_548_19819" x1="27.7501" y1="9.6084" x2="11.2501" y2="29.6084" gradientUnits="userSpaceOnUse"><stop stop-color="#4D555B" stop-opacity="0.9"></stop><stop offset="0.333952" stop-color="#4D555B" stop-opacity="0.7"></stop><stop offset="0.688594" stop-color="#26292B"></stop><stop offset="1" stop-color="#25282A"></stop></linearGradient></defs></svg>