<svg width="36.000000" height="36.000000" viewBox="0 0 36 36" fill="none" xmlns="http://www.w3.org/2000/svg"><defs></defs><path id="Shape" d="M18.7433 3.33105C18.5537 3.12033 18.2834 3 18 3C17.7166 3 17.4463 3.12033 17.2567 3.33105L16.1736 4.53458C13.8386 7.12906 10.5463 8.60208 7.1001 8.60208C6.47534 8.60208 6 9.11286 6 9.70406L6 17.1443C6 24.4494 10.7345 30.8951 17.6466 32.9486C17.8773 33.0171 18.1227 33.0171 18.3534 32.9486C25.2655 30.8951 30 24.4494 30 17.1443L30 9.70406C30 9.11288 29.5248 8.60208 28.8999 8.60208C25.4537 8.60208 22.1614 7.12906 19.8264 4.53458L18.7433 3.33105ZM17.6602 5.87248L18 5.49488L18.3398 5.87248C20.8467 8.65794 24.3126 10.3373 28 10.5733L28 17.1443C28 23.5081 23.9266 29.1006 18 30.9653C12.0734 29.1006 8 23.5081 8 17.1443L8 10.5733C11.6874 10.3373 15.1533 8.65794 17.6602 5.87248ZM23.7072 16.7071C24.0977 16.3166 24.0977 15.6834 23.7072 15.2929C23.3165 14.9024 22.6835 14.9024 22.2928 15.2929L17 20.5858L14.7072 18.2929C14.3165 17.9024 13.6835 17.9024 13.2928 18.2929C12.9023 18.6834 12.9023 19.3166 13.2928 19.7071L16.2928 22.7071C16.6835 23.0976 17.3165 23.0976 17.7072 22.7071L23.7072 16.7071Z" fill-rule="evenodd" fill="#000000"></path></svg>