<?xml version="1.0" encoding="UTF-8" standalone="no"?>
<svg width="48" height="48" viewBox="0 0 48 48" focusable="false" xmlns="http://www.w3.org/2000/svg"><g><path d="M3 48.28L3 50.54C3 53.74 3.13 55.58 6.36 55.58L41.4 55.58C44.62 55.58 45 53.72 45 50.52L44.97 48.28C44.97 43.57 40.95 40.27 35.42 38.41C32.47 37.57 30.69 36.22 29.71 35.35C29.44 34.31 29.43 32 29.57 31.09C30.32 30.48 31.07 29.35 31.07 26.57C32.17 26.83 32.08 26.14 32.43 25.31C32.87 24.44 33.62 20.27 32.08 21.09C33.17 16.53 33.75 9.35 28.92 9.61C27.9 8.12 23.66 7.06 18.81 9.22C13.96 11.38 15.45 20.42 15.87 21.05C15.59 20.91 15.38 21 15.03 21.35C14.68 21.7 15.26 23.63 15.47 25.09C15.68 26.55 16.5 26.69 16.88 26.57C16.67 28.76 17.82 30.53 18.42 31.14C18.44 32.01 18.47 34 18.33 35.01C18.19 36.02 15.29 37.36 13.87 37.91C7.64 39.63 3 43.09 3 48.28Z" fill-opacity="1.000000" fill-rule="evenodd"></path></g></svg>