<svg width="36" height="36" viewBox="0 0 36 36" xmlns="http://www.w3.org/2000/svg" focusable="false"><g clip-path="url(#clip0_74716_488)"><path fill-rule="evenodd" clip-rule="evenodd" d="M13.455 35.412c9.62 2.511 19.453-3.249 21.965-12.868C37.932 12.925 32.171 3.092 22.553.58 12.934-1.932 3.1 3.829.588 13.447c-2.512 9.619 3.25 19.452 12.867 21.965Zm6.65-29.234c-.585-.118-1.105.345-1.104.942v1.086c.001.509.385.93.883 1.037a8.958 8.958 0 1 1-6.838 16.22c-.428-.285-1.004-.262-1.368.1l-.74.737c-.402.4-.391 1.054.061 1.394.62.467 1.327.902 1.95 1.192a12.001 12.001 0 1 0 9.332-22.097 14.486 14.486 0 0 0-2.176-.61Zm-8.98 3.435c-.39-.372-.416-.99 0-1.332a9.33 9.33 0 0 1 2.61-1.498 12.703 12.703 0 0 1 2.16-.615c.585-.112 1.107.354 1.109.95l.004 1.081c.002.511-.384.935-.882 1.049a8.978 8.978 0 0 0-2.868 1.236c-.414.269-.964.245-1.322-.096l-.811-.775ZM8.17 24.701c.35.467 1.03.497 1.446.088l.678-.669c.361-.355.393-.922.123-1.351a8.958 8.958 0 0 1 .12-9.723c.287-.432.262-1.015-.108-1.378l-.83-.814c-.38-.373-.99-.384-1.311.04-.489.644-.862 1.387-1.167 2.041a12 12 0 0 0-.136 9.826c.271.628.712 1.308 1.185 1.94Z"></path></g><defs><clipPath id="clip0_74716_488"><path d="M0 0h36v36H0z"></path></clipPath></defs></svg>