<svg width="36" height="36" viewBox="0 0 36 36" xmlns="http://www.w3.org/2000/svg" focusable="false"><path fill-rule="evenodd" clip-rule="evenodd" d="M18 36c9.941 0 18-8.059 18-18S27.941 0 18 0 0 8.059 0 18s8.059 18 18 18Zm8-9V17h1.376c.919 0 1.351-1.135.666-1.746l-2.084-1.858V8.92h-2v2.694l-5.292-4.72a1.002 1.002 0 0 0-1.332 0l-9.376 8.36a.976.976 0 0 0-.336.752C8 16 12 16 12 16l-2 1.2V27a1 1 0 0 0 1 1h14a1 1 0 0 0 1-1Zm-11-8a1 1 0 0 1 1-1h4a1 1 0 0 1 1 1v4a1 1 0 0 1-1 1h-4a1 1 0 0 1-1-1v-4Z"></path></svg>