<svg width="36" height="36" viewBox="0 0 36 36" xmlns="http://www.w3.org/2000/svg" focusable="false"><path fill-rule="evenodd" clip-rule="evenodd" d="M30 18c0 6.627-5.373 12-12 12S6 24.627 6 18 11.373 6 18 6s12 5.373 12 12Zm-9.984-9.797c.871 1.265 1.561 2.79 2.03 4.48a11.752 11.752 0 0 0 3.264-1.506 9.986 9.986 0 0 0-5.294-2.974Zm6.236 4.147A9.954 9.954 0 0 1 28 18a9.954 9.954 0 0 1-1.747 5.649c-1.13-.78-2.44-1.386-3.865-1.795.237-1.23.362-2.526.362-3.854a20.42 20.42 0 0 0-.362-3.855c1.424-.409 2.735-1.016 3.864-1.795Zm-.94 12.472a11.75 11.75 0 0 0-3.266-1.505c-.469 1.689-1.159 3.214-2.03 4.48a9.986 9.986 0 0 0 5.295-2.975Zm-9.328 2.975c-.871-1.266-1.561-2.791-2.03-4.48a11.747 11.747 0 0 0-3.265 1.505 9.986 9.986 0 0 0 5.295 2.975Zm-6.237-4.148c1.13-.78 2.44-1.386 3.865-1.795A20.444 20.444 0 0 1 13.25 18c0-1.328.125-2.623.361-3.854-1.424-.408-2.735-1.014-3.865-1.793A9.953 9.953 0 0 0 8 18c0 2.096.645 4.041 1.747 5.649Zm.94-12.47a11.75 11.75 0 0 0 3.267 1.505c.469-1.69 1.159-3.215 2.03-4.48a9.986 9.986 0 0 0-5.296 2.975ZM18 8.064c1.13 1.245 2.023 2.966 2.584 4.96a14.8 14.8 0 0 1-2.587.226 14.75 14.75 0 0 1-2.581-.225c.527-1.873 1.346-3.505 2.38-4.728L18 8.064Zm-.003 6.686c-1 0-1.98-.09-2.924-.262A18.963 18.963 0 0 0 14.75 18a18.9 18.9 0 0 0 .324 3.513A16.28 16.28 0 0 1 18 21.25c1 0 1.982.09 2.926.262.212-1.117.324-2.298.324-3.512s-.113-2.395-.324-3.513a16.3 16.3 0 0 1-2.93.263Zm-2.581 8.225c.561 1.995 1.454 3.716 2.584 4.96 1.13-1.244 2.023-2.965 2.584-4.96A14.79 14.79 0 0 0 18 22.75c-.884 0-1.75.077-2.584.225Z"></path></svg>