<svg width="36" height="36" viewBox="0 0 36 36" xmlns="http://www.w3.org/2000/svg" focusable="false"><path fill-rule="evenodd" clip-rule="evenodd" d="M18 36c9.941 0 18-8.059 18-18S27.941 0 18 0 0 8.059 0 18s8.059 18 18 18Zm8-22v11H10V14h16Zm-.998-5.499v.721h1.887c.613 0 1.111.373 1.111.834v16.111c0 .46-.498.833-1.111.833H9.111C8.498 27 8 26.627 8 26.167V10.056c0-.461.498-.834 1.111-.834h1.888v-.723a1.499 1.499 0 0 1 2.998 0v.723H22v-.72a1.501 1.501 0 0 1 3.002 0Zm-2.295 7.792a1 1 0 0 0-1.414 0l-3.794 3.791-1.792-1.792-.094-.083a1 1 0 0 0-1.32 1.498l2.5 2.5.094.083a1 1 0 0 0 1.32-.083l4.5-4.5.083-.094a1 1 0 0 0-.083-1.32Z"></path></svg>