<svg width="24" height="24" viewBox="0 0 24 24" xmlns="http://www.w3.org/2000/svg" focusable="false"><path fill-rule="evenodd" clip-rule="evenodd" d="M15.534 3.708A8.973 8.973 0 0 0 12.03 3a8.97 8.97 0 0 0-6.364 2.636A8.973 8.973 0 0 0 3.03 12a8.973 8.973 0 0 0 2.635 6.364A8.97 8.97 0 0 0 12.03 21a8.972 8.972 0 0 0 6.364-2.636 9.017 9.017 0 0 0 1.929-2.86 1 1 0 1 0-1.842-.78 7.02 7.02 0 0 1-3.727 3.726 6.974 6.974 0 0 1-2.724.55 6.97 6.97 0 0 1-4.95-2.05A6.974 6.974 0 0 1 5.03 12a6.973 6.973 0 0 1 2.05-4.95A6.97 6.97 0 0 1 12.03 5a6.974 6.974 0 0 1 4.95 2.05c.232.232.448.48.645.742l-1.595.001-.117.007a1 1 0 0 0 .117 1.993h3.898l.116-.007a1 1 0 0 0 .884-.993V5l-.007-.117A1 1 0 0 0 19.928 4l-.117.007a1 1 0 0 0-.883.993v1.218a9.046 9.046 0 0 0-3.395-2.51Z"></path></svg>