<svg width="36" height="36" viewBox="0 0 36 36" xmlns="http://www.w3.org/2000/svg" focusable="false"><path fill-rule="evenodd" clip-rule="evenodd" d="M36 18c0 9.941-8.059 18-18 18S0 27.941 0 18 8.059 0 18 0s18 8.059 18 18ZM13.546 7.001l.116.013a1 1 0 0 1 .822 1.15L13.513 14h8.971l-.97-5.836a1 1 0 0 1 .708-1.125l.114-.025a1 1 0 0 1 1.15.822l.998 6a.92.92 0 0 1 .014.165L29 14v4h-1.571L26 28H10l-1.134-7.937L13 18H7v-4h4.5c0-.054.004-.109.014-.164l.998-6a1 1 0 0 1 1.15-.822L13.546 7ZM14 22h8a1 1 0 1 0 0-2h-8a1 1 0 1 0 0 2Zm0 4h8a1 1 0 1 0 0-2h-8a1 1 0 1 0 0 2Z"></path></svg>