<svg width="20" height="20" viewBox="0 0 20 20" fill="none" xmlns="http://www.w3.org/2000/svg"><path fill-rule="evenodd" clip-rule="evenodd" d="M14 9C14 11.7614 11.7614 14 9 14C6.23858 14 4 11.7614 4 9C4 6.23858 6.23858 4 9 4C11.7614 4 14 6.23858 14 9ZM13.1918 14.6067C12.0233 15.4817 10.5722 16 9 16C5.13401 16 2 12.866 2 9C2 5.13401 5.13401 2 9 2C12.866 2 16 5.13401 16 9C16 10.5725 15.4815 12.0239 14.6061 13.1925L17.7184 16.3049C18.109 16.6954 18.109 17.3285 17.7184 17.7191C17.3279 18.1096 16.6947 18.1096 16.3042 17.7191L13.1918 14.6067Z" fill="#262626" fill-opacity="0.24"></path></svg>
