<svg width="24.000000" height="24.000000" viewBox="0 0 24 24" xmlns="http://www.w3.org/2000/svg" focusable="false"><path id="Shape" d="M6.19995 3L17.8 3C18.9202 3 19.4801 3 19.908 3.21799C20.2843 3.40974 20.5902 3.7157 20.782 4.09202C21 4.51984 21 5.0799 21 6.2L21 17.8C21 18.9201 21 19.4802 20.782 19.908C20.5902 20.2843 20.2843 20.5903 19.908 20.782C19.4801 21 18.9202 21 17.8 21L6.19995 21C5.07996 21 4.5199 21 4.09204 20.782C3.7157 20.5903 3.40979 20.2843 3.21802 19.908C3 19.4802 3 18.9201 3 17.8L3 6.2C3 5.0799 3 4.51984 3.21802 4.09202C3.40979 3.7157 3.7157 3.40974 4.09204 3.21799C4.5199 3 5.07983 3 6.19995 3ZM15 8C15 7.44772 15.4478 7 16 7C16.5522 7 17 7.44772 17 8L17 16C17 16.5523 16.5522 17 16 17C15.4478 17 15 16.5523 15 16L15 8ZM12 10C11.4478 10 11 10.4477 11 11L11 16C11 16.5523 11.4478 17 12 17C12.5522 17 13 16.5523 13 16L13 11C13 10.4477 12.5522 10 12 10ZM7 14C7 13.4477 7.44775 13 8 13C8.55225 13 9 13.4477 9 14L9 16C9 16.5523 8.55225 17 8 17C7.44775 17 7 16.5523 7 16L7 14Z" clip-rule="evenodd" fill-rule="evenodd"></path></svg>