<svg width="24" height="24" viewBox="0 0 24 24" xmlns="http://www.w3.org/2000/svg" focusable="false"><rect id="Icon" width="24.000000" height="24.000000" fill="none"></rect><path id="Shape" d="M13.2869 2.77213L20.7131 7.22791C21.4238 7.65433 22 8.66255 22 9.49129L22 18.9973C22 20.1033 21.1018 21 20.0092 21L3.99084 21C2.89136 21 2 20.1065 2 18.9973L2 9.49129C2 8.66768 2.58081 7.65149 3.28687 7.22791L10.7131 2.77213C11.4238 2.3457 12.5808 2.34854 13.2869 2.77213ZM9.5 14C9.5 12.6193 10.6193 11.5 12 11.5C13.3807 11.5 14.5 12.6193 14.5 14C14.5 15.3807 13.3807 16.5 12 16.5C10.6193 16.5 9.5 15.3807 9.5 14Z" clip-rule="evenodd" fill-rule="evenodd"></path></svg>