<svg width="24.000000" height="24.000000" viewBox="0 0 24 24" xmlns="http://www.w3.org/2000/svg" focusable="false"><rect id="Icon" width="24.000000" height="24.000000" fill="none"></rect><path id="Shape" d="M22 12C22 6.47715 17.5228 2 12 2C6.47717 2 2 6.47715 2 12C2 17.5229 6.47717 22 12 22C17.5228 22 22 17.5229 22 12ZM10.5 7.5C10.5 6.94772 10.9478 6.5 11.5 6.5C12.0522 6.5 12.5 6.94772 12.5 7.5L12.5 11.9116L16.4856 14.1258C16.9684 14.3941 17.1423 15.0029 16.8741 15.4856C16.606 15.9684 15.9972 16.1424 15.5144 15.8742L11.0144 13.3742C10.6969 13.1978 10.5 12.8632 10.5 12.5L10.5 7.5Z" clip-rule="evenodd" fill-rule="evenodd"></path></svg>