<svg width="24.000000" height="24.000000" viewBox="0 0 24 24" xmlns="http://www.w3.org/2000/svg" focusable="false"><rect id="Icon" width="24.000000" height="24.000000" fill="none"></rect><path id="Shape" d="M20.4362 4C21.3276 4 21.6509 4.09282 21.9768 4.26713C22.3027 4.44144 22.5586 4.69723 22.7329 5.02315C22.9072 5.34908 23 5.67237 23 6.56388L23 17.4361C23 18.3276 22.9072 18.6509 22.7329 18.9768C22.5586 19.3028 22.3027 19.5586 21.9768 19.7329C21.6509 19.9072 21.3276 20 20.4362 20L3.56384 20C2.67236 20 2.34912 19.9072 2.02319 19.7329C1.69727 19.5586 1.44141 19.3028 1.26709 18.9768C1.09277 18.6509 1 18.3276 1 17.4361L1 6.56388C1 5.67237 1.09277 5.34908 1.26709 5.02315C1.44141 4.69723 1.69727 4.44144 2.02319 4.26713C2.34912 4.09282 2.67236 4 3.56384 4L20.4362 4ZM13.4645 8.46447C13.855 8.07394 14.4882 8.07394 14.8787 8.46447L17.7072 11.2929L17.7791 11.374L17.7903 11.3871L17.8037 11.4048C17.8215 11.4289 17.8383 11.4537 17.854 11.4793C17.8615 11.4914 17.8685 11.5036 17.8751 11.5157C17.8862 11.5357 17.8966 11.5561 17.9064 11.5768L17.9124 11.59C17.9146 11.5949 17.9167 11.5999 17.9189 11.6049L17.929 11.6289C17.9366 11.6484 17.9438 11.6682 17.9503 11.6879C17.9553 11.7031 17.96 11.7185 17.9642 11.7342C17.9702 11.7556 17.9753 11.7773 17.9797 11.7993C17.9833 11.8166 17.9863 11.8341 17.989 11.851C17.9926 11.8753 17.9954 11.8999 17.9972 11.9248L17.998 11.94L17.999 11.967L18 12L17.9995 12.0332C17.9989 12.0506 17.9978 12.0679 17.9963 12.0858C17.9945 12.1071 17.9921 12.1281 17.989 12.1485C17.9863 12.1659 17.9833 12.1834 17.9799 12.2008C17.9753 12.2227 17.9702 12.2444 17.9641 12.266C17.96 12.2815 17.9553 12.2969 17.9504 12.3117C17.9438 12.3318 17.9366 12.3516 17.9288 12.3713L17.9189 12.3951C17.9167 12.4001 17.9146 12.4051 17.9124 12.41L17.9064 12.4231C17.8966 12.4439 17.8862 12.4643 17.8754 12.4841L17.8539 12.5207C17.8383 12.5463 17.8215 12.5711 17.8037 12.5953C17.7982 12.6026 17.7927 12.6098 17.7838 12.6211L17.7803 12.6254L17.7072 12.7071L14.8787 15.5355L14.7844 15.6187C14.3922 15.9237 13.825 15.896 13.4645 15.5355L13.3812 15.4413C13.0763 15.049 13.104 14.4818 13.4645 14.1213L14.585 13L7 13L6.88342 12.9933C6.38599 12.9355 6 12.5128 6 12C6 11.4477 6.44775 11 7 11L14.5861 11L13.4645 9.87868C13.074 9.48816 13.074 8.85499 13.4645 8.46447Z" clip-rule="evenodd" fill-rule="evenodd"></path></svg>