<svg aria-hidden="true" width="154px" height="24px" viewBox="0 0 154 24" version="1.1"
     xmlns="http://www.w3.org/2000/svg"><path d="M68.8649 7.66613L72.2871 5.1945H60.8301V20H72.2871V17.5284H64.1036V13.7483H71.0968V11.2766H64.1036V7.66613H68.8649Z" fill="#21A038"></path><path d="M52.6472 10.9616H48.8718V7.66613H54.9125L58.1688 5.1945H45.7571V20H52.2461C55.8799 20 57.98 18.3038 57.98 15.3475C57.98 12.5124 56.0923 10.9616 52.6472 10.9616ZM52.1281 17.5284H48.8718V13.4332H52.1281C54.1102 13.4332 55.0305 14.1117 55.0305 15.4929C55.0305 16.8741 54.0394 17.5284 52.1281 17.5284Z" fill="#21A038"></path><path d="M80.671 5.1945H74.5864V20H77.7863V15.8079H80.6953C84.5739 15.8079 86.9981 13.7725 86.9981 10.5012C86.9981 7.22996 84.5739 5.1945 80.671 5.1945ZM80.5983 13.3363H77.762V7.66613H80.5983C82.6588 7.66613 83.7739 8.68385 83.7739 10.5012C83.7739 12.3186 82.6588 13.3363 80.5983 13.3363Z" fill="#21A038"></path><path d="M41.3754 16.4981C40.4789 16.9467 39.4799 17.1828 38.4553 17.1828C35.407 17.1828 33.2041 15.1759 33.2041 12.4135C33.2041 9.65117 35.407 7.64432 38.4553 7.64432C39.5567 7.62071 40.6326 7.95125 41.5291 8.5415L43.9626 6.8888L43.8089 6.74714C42.4001 5.59025 40.5045 5 38.3528 5C36.0218 5 33.8957 5.73191 32.3588 7.05407C30.8218 8.42345 29.9509 10.3359 30.0021 12.3191C29.9765 14.326 30.8218 16.262 32.3588 17.6786C33.9725 19.0716 36.1243 19.8507 38.3272 19.8035C40.7607 19.8035 42.8867 19.0243 44.3212 17.6077L42.1439 16.1203L41.3754 16.4981Z" fill="#21A038"></path><path d="M122.192 5.02127V19.9968H125.332V13.8693H132.017V19.9968H135.157V5.02127H132.017V11.1732H125.332V5.02127H122.192ZM116.791 19.9968H120.098L113.96 5.02127H110.772L104.515 19.9968H107.68L108.94 16.9821H115.602L116.791 19.9968ZM109.892 14.4821L112.319 8.47716L114.603 14.4821H109.892ZM142.199 13.9428H144.15L148.956 19.9723H153L146.577 12.2272L152.191 4.99677H148.599L143.936 11.4183H142.199V4.99677H139.059V19.9723H142.199V13.9428ZM94.1429 10.8546V7.52127H102.351V5.02127H91.0026V19.9968H97.545C101.209 19.9968 103.326 18.2811 103.326 15.2909C103.326 12.4232 101.423 10.8546 97.9494 10.8546H94.1429ZM94.1429 17.4968V13.3546H97.426C99.4244 13.3546 100.352 14.0409 100.352 15.4379C100.352 16.835 99.3768 17.5213 97.426 17.5213H94.1429V17.4968Z" fill="#21A038"></path><path d="M21.4936 4.68178C22.0611 5.41478 22.534 6.21873 22.9359 7.06996L12.0118 15.133L7.42462 12.2483V8.79607L11.9882 11.6571L21.4936 4.68178Z" fill="#21A038"></path><path d="M2.7665 12.0118C2.7665 11.8463 2.7665 11.7044 2.79015 11.5389L0.023645 11.397C0.023645 11.5862 0 11.799 0 11.9882C0 15.2985 1.34778 18.3015 3.52315 20.4768L5.48571 18.5143C3.8069 16.8591 2.7665 14.5655 2.7665 12.0118Z" fill="url(#paint0_linear_3_81)"></path><path d="M11.9882 2.79015C12.1537 2.79015 12.2955 2.79015 12.4611 2.8138L12.6029 0.0472961C12.4138 0.0472961 12.201 0.0236511 12.0118 0.0236511C8.70146 0.0236511 5.6985 1.37143 3.52313 3.5468L5.48569 5.50937C7.14087 3.83055 9.45811 2.79015 11.9882 2.79015Z" fill="url(#paint1_linear_3_81)"></path><path d="M11.9882 21.2335C11.8227 21.2335 11.6808 21.2335 11.5153 21.2099L11.3734 23.9764C11.5626 23.9764 11.7754 24 11.9645 24C15.2749 24 18.2778 22.6522 20.4532 20.4769L18.4907 18.5143C16.8355 20.2168 14.5419 21.2335 11.9882 21.2335Z" fill="url(#paint2_linear_3_81)"></path><path d="M17.1901 4.39803L19.531 2.67192C17.4739 1.01675 14.8492 0 11.9882 0V2.7665C13.9271 2.79015 15.7241 3.38128 17.1901 4.39803Z" fill="url(#paint3_linear_3_81)"></path><path d="M24 12.0118C24 11.2788 23.9291 10.5695 23.8109 9.86009L21.2335 11.7754C21.2335 11.8463 21.2335 11.9409 21.2335 12.0118C21.2335 14.731 20.0513 17.1665 18.1833 18.8453L20.0513 20.9025C22.4631 18.7271 24 15.535 24 12.0118Z" fill="#21A038"></path><path d="M11.9881 21.2335C9.2689 21.2335 6.83343 20.0512 5.15462 18.1833L3.09747 20.0512C5.29649 22.4867 8.46496 24 11.9881 24V21.2335Z" fill="url(#paint4_linear_3_81)"></path><path d="M5.81675 5.17833L3.94877 3.12119C1.5133 5.3202 0 8.48867 0 12.0118H2.7665C2.7665 9.31626 3.94877 6.85715 5.81675 5.17833Z" fill="url(#paint5_linear_3_81)"></path><defs><linearGradient id="paint0_linear_3_81" x1="4.09222" y1="20.1402" x2="1.0629" y2="11.3837" gradientUnits="userSpaceOnUse"><stop offset="0.1444" stop-color="#F2E913"></stop><stop offset="0.3037" stop-color="#E7E518"></stop><stop offset="0.5823" stop-color="#CADB26"></stop><stop offset="0.891" stop-color="#A3CD39"></stop></linearGradient><linearGradient id="paint1_linear_3_81" x1="4.31173" y1="4.02952" x2="12.114" y2="1.05622" gradientUnits="userSpaceOnUse"><stop offset="0.0592" stop-color="#0FA8E0"></stop><stop offset="0.5385" stop-color="#0099F9"></stop><stop offset="0.9234" stop-color="#0291EB"></stop></linearGradient><linearGradient id="paint2_linear_3_81" x1="11.211" y1="22.3097" x2="20.034" y2="20.3156" gradientUnits="userSpaceOnUse"><stop offset="0.1226" stop-color="#A3CD39"></stop><stop offset="0.2846" stop-color="#86C339"></stop><stop offset="0.8693" stop-color="#21A038"></stop></linearGradient><linearGradient id="paint3_linear_3_81" x1="11.4197" y1="0.933233" x2="18.9632" y2="3.26074" gradientUnits="userSpaceOnUse"><stop offset="0.0566" stop-color="#0291EB"></stop><stop offset="0.79" stop-color="#0C8ACB"></stop></linearGradient><linearGradient id="paint4_linear_3_81" x1="3.8009" y1="19.7064" x2="12.0121" y2="22.7744" gradientUnits="userSpaceOnUse"><stop offset="0.1324" stop-color="#F2E913"></stop><stop offset="0.2977" stop-color="#EBE716"></stop><stop offset="0.5306" stop-color="#D9E01F"></stop><stop offset="0.8023" stop-color="#BBD62D"></stop><stop offset="0.9829" stop-color="#A3CD39"></stop></linearGradient><linearGradient id="paint5_linear_3_81" x1="1.03767" y1="12.346" x2="4.33369" y2="3.77183" gradientUnits="userSpaceOnUse"><stop offset="0.0698" stop-color="#A3CD39"></stop><stop offset="0.2599" stop-color="#81C55F"></stop><stop offset="0.9216" stop-color="#0FA8E0"></stop></linearGradient></defs></svg>